<svg width="83" height="82" viewBox="0 0 83 82" fill="none" xmlns="http://www.w3.org/2000/svg">
<path d="M41.4992 0.300049C18.5798 0.300049 0 18.4244 0 40.782C0 63.1398 18.5798 81.264 41.4992 81.264C64.4194 81.264 83 63.1396 83 40.782C83 18.4244 64.4196 0.300049 41.4992 0.300049ZM49.8307 62.7011C49.8307 64.3569 48.4546 65.6992 46.7572 65.6992H41.0959C39.3985 65.6992 38.0224 64.3569 38.0224 62.7011V29.0519L34.5186 30.8969C33.6848 31.3361 32.69 31.3752 31.8231 31.0041C30.9557 30.6327 30.3123 29.8918 30.0793 28.9961L28.9608 24.6952C28.6135 23.3594 29.2441 21.9649 30.4895 21.3147L40.2482 16.2196C40.6943 15.9866 41.1924 15.8648 41.6986 15.8648H46.7572C48.4546 15.8648 49.8307 17.2072 49.8307 18.863V62.7011Z" fill="#4ED9BB"/>
</svg>
