<svg width="83" height="82" viewBox="0 0 83 82" fill="none" xmlns="http://www.w3.org/2000/svg">
<g clip-path="url(#clip0)">
<path d="M41.5 81.2641C64.4198 81.2641 83 63.1397 83 40.7821C83 18.4245 64.4198 0.300049 41.5 0.300049C18.5802 0.300049 0 18.4245 0 40.7821C0 63.1397 18.5802 81.2641 41.5 81.2641Z" fill="#4ED9BB"/>
<path d="M45.9724 81.3592C63.8101 79.4944 78.2638 66.6059 82.0353 49.8147L55.2764 23.712C55.2764 23.712 33.3841 23.1219 25.4764 35.8089L37.1293 47.2047L26.7526 62.7285L45.9724 81.3592Z" fill="#4ED9BB"/>
<path d="M58.7611 62.7284H26.7526V52.189L47.3094 37.0078C49.9161 35.0827 49.288 32.3984 49.0335 31.6215C48.7882 30.8732 47.7442 28.424 44.6069 28.3347C44.537 28.3328 44.414 28.3317 44.3647 28.3314H40.7299C35.3756 28.3314 34.9596 34.0547 34.9596 35.8088H25.4767C25.4767 25.9597 31.749 19.0811 40.7299 19.0811L44.4184 19.0812C44.4184 19.0812 44.7283 19.0839 44.8826 19.0882C51.0146 19.2629 56.189 23.0769 58.0662 28.8046C59.9674 34.6062 57.9919 40.7209 53.0335 44.3828L40.7177 53.4781H58.7613V62.7284H58.7611Z" fill="#F2F2F2"/>
<path d="M53.0331 44.3825L42.1278 52.4367V40.834L47.309 37.0078C49.9153 35.0828 49.2874 32.3985 49.0339 31.622C48.7886 30.8724 47.7438 28.4242 44.6063 28.335C44.536 28.3334 44.4134 28.3318 44.3643 28.3318H42.1277V19.0815H44.4183C44.4183 19.0815 44.7273 19.0847 44.8826 19.0879C51.0137 19.2632 56.1884 23.0766 58.0655 28.8054C59.967 34.6059 57.992 40.7208 53.0331 44.3825Z" fill="#F2F2F2"/>
<path d="M42.1278 53.4781H58.7606V62.7284H42.1278V53.4781Z" fill="white"/>
</g>
<defs>
<clipPath id="clip0">
<rect width="83" height="80.964" fill="white" transform="translate(0 0.629639)"/>
</clipPath>
</defs>
</svg>
