<svg width="83" height="86" viewBox="0 0 83 86" fill="none" xmlns="http://www.w3.org/2000/svg">
<path d="M41 85C63.6437 85 82 67.0914 82 45C82 22.9086 63.6437 5 41 5C18.3563 5 0 22.9086 0 45C0 67.0914 18.3563 85 41 85Z" fill="#4ED9BB"/>
<path d="M40.4347 56.2122L35.5867 51.9753L30.3068 59.1695L50.4338 79C62.91 75.45 72.682 65.622 76 53.212L50.4131 28L27 34.3507L37.2793 44.4577L36.7539 46.7619L44.8285 54.4563C44.8285 54.4562 42.0541 56.5073 40.4347 56.2122V56.2122Z" fill="#4ED9BB"/>
<path d="M53.0114 27.5357C50.4107 24.7084 46.067 23.0205 41.3919 23.0205C40.4446 23.0205 39.4943 23.1054 38.5677 23.2729L38.2822 23.3243C35.4375 23.8369 32.8604 25.1124 30.8292 27.0126C28.839 28.8757 27.5094 31.2157 26.984 33.7795L26.8225 34.5678L36.427 35.2767L36.6223 34.7843C37.179 33.3817 38.521 32.3306 40.1244 32.0414L40.4099 31.99C42.2213 31.6636 44.0815 32.2596 45.2655 33.5468C46.8356 35.2529 46.6788 37.9938 44.923 39.5323C44.0726 40.2777 39.8863 41.1384 38.4937 41.0818L37.733 41.05V48.3112L38.4937 48.2794C39.8955 48.222 44.0729 49.0836 44.9232 49.8289C46.6788 51.3674 46.8356 54.1083 45.2654 55.8146C44.0815 57.1016 42.2211 57.6978 40.4097 57.3712L40.1246 57.3198C38.521 57.0306 37.179 55.9795 36.6223 54.5769L36.427 54.0844L26.8225 54.7933L26.984 55.5816C27.5092 58.1454 28.8388 60.4855 30.8294 62.3488C32.8603 64.2489 35.4375 65.5242 38.2822 66.0369L38.5673 66.0883C39.4943 66.2558 40.4446 66.3407 41.3919 66.3407C46.067 66.3407 50.4107 64.6528 53.0113 61.8257C57.3934 57.0624 57.1869 49.6569 52.6373 44.6806C57.1869 39.7043 57.3936 32.2988 53.0114 27.5357V27.5357Z" fill="#F2F2F2"/>
<path d="M52.6369 44.68C57.1873 49.6564 57.3932 57.0618 53.0114 61.8263C50.4306 64.63 46.1347 66.3141 41.5 66.3394V57.4571C42.9395 57.4302 44.3207 56.8436 45.2658 55.8141C46.835 54.1079 46.6794 51.3674 44.9238 49.8288C44.4536 49.4176 42.9703 48.9701 41.5 48.6618V40.6982C42.9703 40.3898 44.4536 39.9439 44.9238 39.5328C46.6794 37.9941 46.835 35.2537 45.2658 33.5474C44.3207 32.518 42.9395 31.9313 41.5 31.9044V23.0221C46.1347 23.0474 50.4306 24.7299 53.0114 27.5352C57.3932 32.2982 57.1873 39.7035 52.6369 44.68Z" fill="#F2F2F2"/>
</svg>
